# xmcd
#
# Track frame offsets: 
#        150
#        17379
#        31737
#        48888
#        65977
#        86863
#        102447
#        121429
#        139657
#        162431
#        177302
#        193770
#        219349
#        248455
#        269884
#        298475
#        326204
#
# Disc length: 4715 seconds
#
# Revision: 0
# Processed by: cddbd v1.5.2PL0 Copyright (c) Steve Scherf et al.
# Submitted via: ExactAudioCopy v0.95b4
#
DISCID=08126911
DTITLE=HAYWOODE - Arrival
DYEAR=2010
DGENRE=R&B
TTITLE0=Roses (7'' Version)
TTITLE1=Getting Closer (7'' Version)
TTITLE2=Single Handed (7'' Version)
TTITLE3=I Can't Let You Go (Detroit 7'' Mix)
TTITLE4=Jelly Baby
TTITLE5=You'd Better Not Fool Around (7'' Version)
TTITLE6=I Wanna Be Your Lover
TTITLE7=A Time Like This (7'' Version)
TTITLE8=Missing You
TTITLE9=Under Fire
TTITLE10=Tease Me
TTITLE11=A Time Like This (Extended Version Part 1)
TTITLE12=Single Handed (Extended Version)
TTITLE13=I Can't Let You Go (Thigh and Mighty Mix)
TTITLE14=Getting Closer (Extended Version)
TTITLE15=You'd Better Not Fool Around (Extended Version)
TTITLE16=Roses (Extended Version)
EXTD=
EXTT0=
EXTT1=
EXTT2=
EXTT3=
EXTT4=
EXTT5=
EXTT6=
EXTT7=
EXTT8=
EXTT9=
EXTT10=
EXTT11=
EXTT12=
EXTT13=
EXTT14=
EXTT15=
EXTT16=
PLAYORDER=
